# xmcd
#
# Track frame offsets: 
#        183
#        13305
#        22578
#        34800
#        51315
#        64690
#        77448
#        88758
#        102360
#        113185
#        130063
#        143180
#        154525
#        171533
#        182740
#        195395
#        212738
#        221910
#
# Disc length: 3130 seconds
#
# Revision: 6
# Processed by: cddbd v1.5.1PL0 Copyright (c) Steve Scherf et al.
# Submitted via: ExactAudioCopy v0.95a5
#
DISCID=f90c3812
DTITLE=Various Artist - Sweet Soul Sisters
DYEAR=1990
DGENRE=Blues
TTITLE0=Etta James - All I Could Do Is Cry
TTITLE1=Jan Bradley - Mama Didn't Lie
TTITLE2=Barbara Lewis - Hello Stranger
TTITLE3=Mitty Collier - I Had a Talk With My Man
TTITLE4=Etta James - Pushover
TTITLE5=Sugar Pie DeSanto - Slip In Mules
TTITLE6=Barbara Lewis - Baby I'm Yours
TTITLE7=Koko Taylor - Wang Dang Doodle
TTITLE8=Etta James - Tell Mama
TTITLE9=Mitty Collier - No Faith, No Love
TTITLE10=Laura Lee - Dirty Man
TTITLE11=Barbara Lewis - Make Me Your Baby
TTITLE12=Sylvia - Pillow Talk
TTITLE13=Doris Troy - Just One Look
TTITLE14=Etta James - Security
TTITLE15=Shirley and Company - Shame, Shame, Shame
TTITLE16=Gladys Knight and the Pips - Every Beat of My Heart
TTITLE17=Fontella Bass - Rescue Me
EXTD=LABEL =JCI - Telstar Records\nID =TSD-3516\nUPC =05109-13516-25
EXTD=\nCOPYRIGHT =1990\n*****\nsubtitle ="Masters of the Blues"
EXTT0=
EXTT1=
EXTT2=
EXTT3=
EXTT4=
EXTT5=
EXTT6=
EXTT7=
EXTT8=
EXTT9=
EXTT10=
EXTT11=
EXTT12=
EXTT13=
EXTT14=
EXTT15=
EXTT16=
EXTT17=
PLAYORDER=
